<?xml version="1.0" encoding="UTF-8"?>
<!DOCTYPE svg PUBLIC "-//W3C//DTD SVG 1.1//EN" "http://www.w3.org/Graphics/SVG/1.1/DTD/svg11.dtd">
<svg xmlns="http://www.w3.org/2000/svg" xmlns:xlink="http://www.w3.org/1999/xlink" version="1.1" preserveAspectRatio="xMidYMid meet" viewBox="0 0 16 16" width="16" height="16">
   <defs>
      <path d="M10.52 0.4L11.67 0.89L12.72 1.54L13.65 2.34L14.45 3.27L15.1 4.32L15.59 5.47L15.89 6.7L16 8L15.89 9.29L15.59 10.52L15.1 11.67L14.45 12.72L13.65 13.65L12.72 14.45L11.67 15.1L10.52 15.59L9.29 15.89L8 16L6.7 15.89L5.47 15.59L4.32 15.1L3.27 14.45L2.34 13.65L1.54 12.72L0.89 11.67L0.4 10.52L0.1 9.29L0 8L0.1 6.7L0.4 5.47L0.89 4.32L1.54 3.27L2.34 2.34L3.27 1.54L4.32 0.89L5.47 0.4L6.7 0.1L8 0L9.29 0.1L10.52 0.4ZM1.73 4.4L5.04 9.79L5.04 9.8L5.06 9.82L5.26 10.1L5.48 10.36L5.73 10.6L6 10.81L6.3 11L6.61 11.16L6.94 11.28L7.28 11.37L7.63 11.43L8 11.45L8.15 11.45L8.29 11.44L8.44 11.42L8.58 11.4L8.72 11.37L8.85 11.34L8.99 11.3L9.12 11.26L9.38 11.16L7.08 15.2L7.75 15.26L7.76 15.26L7.79 15.26L7.84 15.27L11.02 9.69L11.02 9.68L11.03 9.68L11.11 9.53L11.25 9.21L11.31 9.04L11.36 8.87L11.4 8.69L11.43 8.52L11.46 8.34L11.47 8.16L11.48 7.97L11.46 7.63L11.41 7.3L11.34 6.99L11.23 6.68L11.1 6.39L10.94 6.11L10.75 5.85L10.55 5.61L10.32 5.39L10.08 5.19L14.65 5.19L14.32 4.49L8 4.49L7.47 4.53L6.96 4.65L6.49 4.84L6.05 5.09L5.65 5.41L5.31 5.77L5.02 6.19L4.79 6.64L4.63 7.13L4.54 7.65L2.16 3.78L1.75 4.37L1.73 4.4Z" id="a1yNiTd7LV" />
      <path d="M10.81 7.98C10.81 9.55 9.54 10.83 7.97 10.83C6.4 10.83 5.13 9.55 5.13 7.98C5.13 6.41 6.4 5.14 7.97 5.14C9.54 5.14 10.81 6.41 10.81 7.98Z" id="cxS9pM9ix" />
   </defs>
   <g>
      <g>
         <g>
            <use xlink:href="#a1yNiTd7LV"
             opacity="1" 
             fill="param(fill) #f5f5f5"
             fill-opacity="param(fill-opacity) 1" />
         </g>
         <g>
            <use xlink:href="#cxS9pM9ix" 
            opacity="1" 
            fill="param(fill) #f5f5f5" 
            fill-opacity="param(fill-opacity) 1" />
            <g>
               <use xlink:href="#cxS9pM9ix" 
               opacity="1" 
               fill-opacity="param(fill-opacity) 0" 
               stroke="param(outline) #a61747" 
               stroke-width="param(stroke-width) 0" 
               stroke-opacity="param(outline-opacity) 1" />
            </g>
         </g>
      </g>
   </g>
</svg>
