<?xml version="1.0" encoding="UTF-8"?>
<!DOCTYPE svg PUBLIC "-//W3C//DTD SVG 1.1//EN" "http://www.w3.org/Graphics/SVG/1.1/DTD/svg11.dtd">
<svg xmlns="http://www.w3.org/2000/svg" xmlns:xlink="http://www.w3.org/1999/xlink" version="1.1" preserveAspectRatio="xMidYMid meet" viewBox="0 0 16 16" width="16" height="16">
   <defs>
      <path d="M10.53 0.41L11.67 0.89L12.72 1.54L13.66 2.34L14.46 3.28L15.11 4.33L15.59 5.47L15.9 6.7L16 8L15.9 9.3L15.59 10.53L15.11 11.67L14.46 12.72L13.66 13.66L12.72 14.46L11.67 15.11L10.53 15.59L9.3 15.9L8 16L6.7 15.9L5.47 15.59L4.33 15.11L3.28 14.46L2.34 13.66L1.54 12.72L0.89 11.67L0.41 10.53L0.1 9.3L0 8L0.1 6.7L0.41 5.47L0.89 4.33L1.54 3.28L2.34 2.34L3.28 1.54L4.33 0.89L5.47 0.41L6.7 0.1L8 0L9.3 0.1L10.53 0.41ZM10.48 5.57L10.82 5.97L11.1 6.42L11.3 6.91L11.43 7.44L11.48 8L11.47 8.3L11.43 8.6L11.36 8.88L11.28 9.16L11.17 9.43L11.04 9.68L11.04 9.69L11.03 9.7L11.03 9.7L11.03 9.71L11.02 9.72L11.02 9.72L7.84 15.3L7.86 15.3L7.89 15.3L7.92 15.3L7.95 15.3L7.97 15.3L8 15.3L9.94 15.04L11.69 14.31L13.17 13.17L14.31 11.69L15.04 9.94L15.3 8L15.29 7.51L15.24 7.03L15.16 6.56L15.05 6.1L14.92 5.65L14.76 5.22L10.08 5.22L10.48 5.57ZM1.15 5.48L0.95 6.08L0.81 6.7L0.73 7.34L0.7 8L0.92 9.8L1.55 11.43L2.53 12.85L3.82 13.99L5.35 14.81L7.07 15.24L9.38 11.19L9.17 11.28L8.95 11.35L8.72 11.4L8.48 11.44L8.24 11.47L8 11.48L7.4 11.43L6.83 11.28L6.31 11.04L5.84 10.72L5.42 10.33L5.08 9.88L5.08 9.87L5.07 9.87L5.06 9.86L5.05 9.85L5.05 9.84L5.04 9.83L5.04 9.82L1.68 4.35L1.39 4.9L1.15 5.48ZM6.03 6.03L5.44 6.92L5.22 8L5.44 9.08L6.03 9.97L6.92 10.56L8 10.78L8.75 10.68L9.42 10.4L9.98 9.95L10.42 9.38L10.42 9.37L10.43 9.36L10.43 9.36L10.43 9.36L10.58 9.05L10.69 8.71L10.76 8.36L10.78 8L10.56 6.92L9.97 6.03L9.08 5.44L8 5.22L6.92 5.44L6.03 6.03ZM5.69 1.07L4.64 1.52L3.68 2.11L2.83 2.85L2.1 3.7L4.54 7.68L4.72 6.84L5.1 6.09L5.64 5.45L6.31 4.96L7.1 4.64L7.96 4.52L7.97 4.52L7.97 4.52L7.98 4.52L7.99 4.52L8 4.52L14.43 4.52L13.71 3.45L12.83 2.52L11.79 1.75L10.63 1.18L9.36 0.82L8 0.7L6.81 0.79L5.69 1.07Z" id="d1ooKycOh" />
   </defs>
   <g>
      <g>
         <g>
            <use xlink:href="#d1ooKycOh" 
            opacity="1" 
            fill="param(fill) #ffffff" 
            fill-opacity="param(fill-opacity) 1" />
            <g>
               <use xlink:href="#d1ooKycOh" 
               opacity="1" 
               fill-opacity="param(fill-opacity) 0" 
               stroke="#ffffff" 
               stroke-width="param(stroke-width) 1" 
               stroke-opacity="param(outline-opacity) 0" />
            </g>
         </g>
      </g>
   </g>
</svg>
