<?xml version="1.0" encoding="UTF-8"?>
<!DOCTYPE svg PUBLIC "-//W3C//DTD SVG 1.1//EN" "http://www.w3.org/Graphics/SVG/1.1/DTD/svg11.dtd">
<svg xmlns="http://www.w3.org/2000/svg" xmlns:xlink="http://www.w3.org/1999/xlink" version="1.1" preserveAspectRatio="xMidYMid meet" viewBox="0 0 16 16" width="16" height="16">
   <defs>
      <path d="M10.53 0.41L11.67 0.89L12.72 1.55L13.65 2.35L14.45 3.28L15.11 4.33L15.59 5.47L15.9 6.7L16 8L15.9 9.3L15.59 10.53L15.11 11.67L14.45 12.72L13.65 13.65L12.72 14.45L11.67 15.11L10.53 15.59L9.3 15.9L8 16L6.7 15.9L5.47 15.59L4.33 15.11L3.28 14.45L2.35 13.65L1.55 12.72L0.89 11.67L0.41 10.53L0.1 9.3L0 8L0.1 6.7L0.41 5.47L0.89 4.33L1.55 3.28L2.35 2.35L3.28 1.55L4.33 0.89L5.47 0.41L6.7 0.1L8 0L9.3 0.1L10.53 0.41ZM2.01 3.83L1.97 3.9L1.93 3.96L1.88 4.03L1.84 4.09L1.8 4.15L1.76 4.22L1.72 4.29L1.68 4.35L5.04 9.82L5.04 9.82L5.04 9.83L5.04 9.83L5.04 9.83L5.05 9.84L5.06 9.85L5.26 10.13L5.48 10.39L5.73 10.63L6 10.84L6.3 11.03L6.61 11.19L6.94 11.31L7.28 11.4L7.63 11.46L8 11.48L8.15 11.48L8.29 11.47L8.44 11.45L8.58 11.43L8.72 11.4L8.85 11.37L8.99 11.33L9.12 11.29L9.25 11.24L9.38 11.19L7.07 15.24L7.15 15.25L7.22 15.26L7.3 15.26L7.38 15.27L7.45 15.28L7.53 15.28L7.61 15.29L7.68 15.29L7.76 15.29L7.84 15.3L11.02 9.72L11.02 9.72L11.02 9.72L11.02 9.71L11.03 9.71L11.11 9.56L11.18 9.4L11.25 9.24L11.31 9.07L11.36 8.9L11.4 8.72L11.43 8.55L11.46 8.37L11.47 8.19L11.48 8L11.46 7.66L11.41 7.33L11.34 7.02L11.23 6.71L11.1 6.42L10.94 6.14L10.75 5.88L10.55 5.64L10.32 5.42L10.08 5.22L14.75 5.22L14.72 5.15L14.69 5.08L14.66 5L14.63 4.93L14.6 4.86L14.56 4.8L14.53 4.73L14.49 4.66L14.46 4.59L14.42 4.52L8 4.52L7.47 4.56L6.96 4.68L6.49 4.87L6.05 5.12L5.65 5.44L5.31 5.8L5.02 6.22L4.79 6.67L4.63 7.16L4.54 7.68L2.1 3.71L2.06 3.77L2.01 3.83Z" id="h6sGCwgap" />
   </defs>
   <g>
      <g>
         <g>
            <use xlink:href="#h6sGCwgap" 
            opacity="1" 
            fill="param(fill) #b6bbc9" 
            fill-opacity="param(fill-opacity) 1" />
            <g>
               <use xlink:href="#h6sGCwgap" 
               opacity="1" 
               fill-opacity="param(fill-opacity) 0" 
               stroke="#b6bbc9" 
               stroke-width="param(stroke-width) 0" 
               stroke-opacity="param(outline-opacity) 0" />
            </g>
         </g>
      </g>
   </g>
</svg>
